<?xml version="1.0" standalone="no"?>
<!DOCTYPE svg PUBLIC "-//W3C//DTD SVG 20010904//EN"
 "http://www.w3.org/TR/2001/REC-SVG-20010904/DTD/svg10.dtd">
<svg version="1.0" xmlns="http://www.w3.org/2000/svg"
 width="550.000000pt" height="550.000000pt" viewBox="0 0 550.000000 550.000000"
 preserveAspectRatio="xMidYMid meet">
<metadata>
Created by potrace 1.16, written by Peter Selinger 2001-2019
</metadata>
<g transform="translate(0.000000,550.000000) scale(0.100000,-0.100000)"
fill="#000000" stroke="none">
<path d="M2672 4820 c0 -14 2 -19 5 -12 2 6 2 18 0 25 -3 6 -5 1 -5 -13z"/>
<path d="M2662 4669 c1 -116 0 -123 -22 -141 -13 -10 -33 -18 -44 -16 -18 3
-21 10 -21 47 0 59 -19 63 -22 5 -2 -35 5 -58 28 -100 39 -68 34 -112 -21
-185 -42 -55 -42 -70 -4 -87 35 -17 30 -34 -22 -72 -59 -42 -104 -112 -104
-161 l0 -37 -87 -6 c-117 -9 -149 -18 -219 -66 -60 -41 -136 -70 -184 -70 -32
0 -70 -37 -70 -68 0 -18 -4 -21 -23 -17 -16 4 -29 -1 -46 -19 -13 -14 -27 -23
-32 -21 -4 3 -21 -11 -37 -31 l-29 -35 -17 53 c-10 29 -31 75 -48 101 l-31 48
18 53 c16 46 17 61 7 111 -7 32 -12 72 -12 89 0 28 -1 29 -16 14 -9 -9 -19
-37 -21 -62 -3 -25 -10 -46 -14 -46 -16 0 -10 76 11 142 38 123 20 193 -71
270 -59 50 -79 84 -79 132 0 19 -4 37 -8 40 -18 11 8 -108 31 -143 43 -64 67
-119 67 -151 0 -43 -27 -92 -48 -88 -14 3 -17 15 -17 65 0 34 -3 64 -6 67 -3
3 -13 -19 -23 -48 -15 -43 -16 -60 -8 -85 13 -36 7 -60 -38 -154 -18 -37 -34
-84 -37 -106 -5 -34 -1 -43 32 -80 l37 -41 -4 -142 c-3 -79 -8 -151 -12 -160
-13 -30 -26 -20 -26 20 0 27 -3 33 -10 22 -20 -32 -22 -92 -5 -161 19 -78 11
-119 -23 -119 -26 0 -77 57 -101 113 -11 26 -22 47 -24 47 -2 0 0 -21 4 -47
10 -60 51 -161 95 -234 19 -31 34 -63 34 -71 0 -8 -26 -66 -57 -129 l-58 -114
-3 -210 -3 -210 -45 49 c-38 42 -44 55 -44 92 0 24 -5 46 -10 49 -6 4 -10 -15
-10 -51 0 -44 5 -64 23 -88 33 -43 49 -98 42 -139 -4 -21 -3 -37 4 -41 6 -4
11 -36 11 -72 0 -58 3 -69 28 -93 15 -15 32 -30 38 -32 6 -2 23 -42 38 -89
140 -428 466 -776 883 -941 43 -17 82 -35 87 -40 6 -5 17 -9 26 -9 9 0 46 -20
83 -44 93 -61 142 -70 242 -47 70 17 82 18 119 5 44 -16 91 -12 161 13 22 8
74 16 116 18 42 2 105 11 140 20 67 17 249 99 298 135 38 26 43 25 35 -5 -8
-31 -6 -31 47 0 26 14 46 34 49 47 4 16 14 24 33 26 18 2 27 9 27 21 0 18 235
247 313 306 40 30 76 89 97 163 9 27 25 51 48 68 29 22 33 31 29 57 -3 24 1
36 19 50 13 10 24 26 24 36 0 9 18 35 41 56 52 51 62 76 49 126 -8 28 -8 45 0
59 8 16 8 35 -1 75 -18 82 1 178 59 295 40 80 47 103 46 150 -1 72 -13 149
-26 177 -6 12 -8 30 -4 40 6 15 5 16 -6 5 -9 -9 -10 -19 -1 -42 16 -41 1 -155
-27 -210 l-23 -45 -18 90 c-10 50 -27 122 -38 162 -19 65 -20 89 -14 239 5
126 3 165 -5 160 -7 -4 -12 -16 -12 -27 0 -10 -5 -19 -11 -19 -8 0 -9 11 -3
38 4 20 8 71 9 112 1 62 5 83 28 121 34 58 35 105 2 150 -83 114 -87 121 -82
175 3 32 19 78 42 121 30 57 34 73 26 95 -10 27 -37 43 -46 28 -4 -6 1 -10 9
-10 26 0 18 -25 -23 -75 -21 -26 -47 -64 -57 -86 -11 -21 -22 -39 -25 -39 -12
0 -33 109 -33 170 0 36 -1 56 -4 45 -2 -11 -9 -26 -16 -34 -7 -9 -11 -57 -11
-125 0 -103 -3 -116 -33 -188 -41 -95 -66 -128 -98 -128 -17 0 -25 7 -30 26
-4 17 -2 29 6 34 25 15 1 29 -31 18 -28 -10 -33 -8 -67 30 -50 54 -152 118
-220 137 -72 21 -164 79 -156 99 3 8 1 31 -6 50 -9 29 -8 39 10 68 25 42 25
48 -5 92 -14 20 -25 48 -25 61 0 14 -4 25 -10 25 -5 0 -10 -17 -10 -39 0 -21
-5 -52 -11 -70 -20 -58 -31 -34 -28 67 2 68 -2 108 -13 135 l-15 39 -12 -31
c-7 -16 -21 -37 -30 -45 -16 -15 -19 -14 -29 9 -14 30 -28 32 -42 5 -12 -22
-58 -27 -92 -9 -31 17 -34 2 -5 -29 53 -55 60 -113 21 -172 -26 -39 -27 -39
-55 -25 -39 21 -69 19 -144 -10 -43 -16 -76 -22 -95 -18 -28 5 -30 9 -30 47 0
27 -12 67 -35 115 l-36 74 26 27 c29 30 31 56 9 108 -13 29 -18 85 -24 249 -7
231 -19 300 -18 102z m7 -363 c6 -25 11 -50 11 -55 0 -17 -50 -13 -57 5 -7 18
14 94 26 94 5 0 14 -20 20 -44z m39 -488 c81 4 118 4 242 -1 125 -4 180 -13
180 -27 0 -12 52 -61 83 -76 25 -14 30 -13 54 6 l27 21 16 -21 c12 -16 22 -19
46 -14 28 5 32 3 42 -24 7 -20 30 -44 66 -67 47 -32 61 -36 102 -33 47 3 48 2
73 -41 15 -24 34 -47 43 -50 9 -3 26 -18 38 -33 12 -16 28 -28 35 -28 8 0 19
-9 25 -20 6 -11 16 -17 25 -14 10 4 15 0 15 -14 0 -12 14 -36 30 -54 20 -21
30 -43 30 -64 0 -29 9 -44 79 -136 12 -14 21 -36 21 -48 0 -26 46 -110 69
-127 14 -9 17 -23 13 -65 -3 -49 -1 -57 34 -101 40 -51 44 -72 29 -154 -6 -35
-4 -46 14 -69 12 -15 21 -41 21 -60 0 -18 7 -49 17 -68 15 -33 15 -37 -5 -85
-12 -27 -22 -61 -22 -75 0 -85 -71 56 -78 155 -2 38 -9 72 -15 76 -6 4 -8 0
-4 -11 4 -9 2 -40 -4 -67 -13 -59 0 -142 31 -212 14 -31 20 -65 20 -128 0 -79
-2 -87 -25 -107 -14 -12 -25 -28 -25 -34 -1 -7 -8 0 -16 15 -9 17 -13 39 -10
53 4 13 2 24 -3 24 -6 0 -16 -27 -23 -61 -16 -77 -29 -52 -21 41 4 53 2 68
-11 79 -17 14 -23 2 -6 -15 6 -6 2 -32 -10 -73 -26 -84 -25 -123 6 -189 23
-49 25 -63 19 -119 -6 -54 -10 -65 -30 -73 -15 -6 -25 -20 -29 -44 -9 -47 -60
-106 -92 -106 -30 0 -140 -91 -148 -123 -4 -16 -20 -30 -48 -43 -59 -26 -116
-72 -120 -98 -2 -14 -11 -21 -25 -22 -12 -1 -36 -13 -52 -27 -17 -14 -40 -28
-51 -32 -11 -3 -20 -11 -20 -17 0 -5 -7 -7 -16 -4 -9 4 -28 -4 -46 -19 -34
-29 -73 -32 -99 -9 -17 16 -19 15 -28 -7 -5 -14 -23 -40 -40 -58 -26 -28 -36
-32 -59 -27 -39 10 -54 11 -79 2 -17 -5 -23 -3 -23 8 0 18 -13 20 -39 6 -15
-7 -23 -2 -42 27 -13 20 -44 51 -69 68 -49 34 -72 81 -63 127 3 15 2 35 -2 45
-5 14 -10 10 -21 -22 -7 -22 -14 -48 -14 -58 0 -10 -12 -30 -26 -44 -25 -25
-27 -26 -40 -8 -17 23 -28 95 -19 134 4 17 22 49 40 71 43 51 51 100 31 180
-9 34 -16 96 -16 138 0 110 -13 146 -77 213 -39 41 -54 64 -50 78 2 10 1 25
-4 32 -6 9 -9 -2 -9 -31 0 -32 7 -56 26 -83 43 -64 76 -165 81 -253 8 -112 0
-142 -59 -230 -39 -57 -51 -84 -50 -108 7 -92 6 -119 -5 -123 -6 -2 -17 12
-25 32 -9 27 -24 43 -53 57 -22 12 -43 26 -47 32 -13 18 -9 71 7 109 18 45 19
112 0 152 -13 29 -13 29 -14 -33 -1 -49 -5 -64 -18 -69 -11 -4 -22 1 -31 15
-17 26 -36 30 -23 5 5 -10 14 -54 19 -98 6 -44 12 -87 14 -95 1 -8 -1 -17 -7
-18 -5 -2 -17 16 -25 40 -20 59 -28 68 -53 68 l-21 0 22 -16 c25 -17 28 -46
11 -138 -9 -50 -8 -69 4 -104 8 -23 11 -45 6 -48 -15 -9 -52 7 -84 36 -23 21
-44 29 -89 34 -68 7 -92 18 -101 45 -3 11 -22 25 -43 32 -66 21 -102 41 -102
58 0 9 -16 29 -35 44 -19 15 -35 37 -35 47 0 17 -40 51 -96 83 -8 4 -20 10
-27 15 -50 27 -96 70 -97 88 0 11 -17 54 -39 95 -21 41 -42 93 -46 116 -6 38
-11 45 -50 62 -51 23 -58 32 -45 63 6 14 7 46 3 83 -7 49 -12 62 -32 71 -33
17 -52 66 -45 117 4 32 -2 63 -24 126 l-30 84 19 31 c31 51 32 57 16 73 -14
14 -12 21 16 72 l30 56 -31 44 c-38 53 -40 78 -8 93 16 6 36 35 56 76 29 61
30 68 20 115 -10 46 -8 53 13 86 13 20 28 47 32 60 4 14 23 40 42 58 29 26 34
37 29 58 -5 19 0 32 18 50 14 14 33 25 43 25 28 0 63 29 63 51 0 49 77 147
128 163 11 4 36 31 56 62 37 54 66 74 111 74 16 0 28 9 37 27 18 38 121 78
160 62 23 -9 33 -8 65 12 21 13 39 26 41 30 16 36 28 41 71 28 41 -12 44 -11
60 10 20 27 85 38 130 23 26 -9 35 -7 63 13 25 18 40 22 63 17 17 -4 49 -6 73
-4z m1336 -365 c-15 -45 -16 -60 -6 -115 11 -61 8 -108 -8 -108 -11 0 -20 27
-20 59 0 16 -5 42 -11 59 -13 37 9 163 39 229 l17 38 3 -55 c2 -34 -3 -75 -14
-107z"/>
<path d="M2543 2045 c0 -22 2 -30 4 -17 2 12 2 30 0 40 -3 9 -5 -1 -4 -23z"/>
</g>
</svg>
